<?xml version="1.0" encoding="UTF-8"?>
<svg version="1.1" xmlns="http://www.w3.org/2000/svg" width="2500" height="2500">
<path d="M0 0 C3.78911176 0.0000806 7.57810089 -0.0067697 11.3671875 -0.02050781 C37.73780931 -0.11448402 63.97197255 0.51488473 90.29174805 2.18530273 C91.4507663 2.25864838 92.60978455 2.33199402 93.80392456 2.40756226 C100.14008972 2.82257379 106.46649082 3.31680467 112.79174805 3.87280273 C113.73002441 3.95389282 114.66830078 4.03498291 115.63500977 4.11853027 C205.55221974 11.97684728 294.0977463 29.45714809 380.29174805 56.18530273 C381.51447418 56.56365265 381.51447418 56.56365265 382.76190186 56.949646 C458.28538631 80.36171682 532.34646323 111.43386029 601.56811523 149.69116211 C604.22923393 151.15100851 606.90206703 152.58622018 609.58081055 154.01342773 C622.90728416 161.13712715 635.82435961 168.83986289 648.68569946 176.76298523 C652.06410989 178.83893959 655.45932023 180.88280695 658.87280273 182.90063477 C670.36035515 189.70142261 681.56326419 196.84323101 692.64624023 204.28442383 C695.2875713 206.05749896 697.93376704 207.82311379 700.58081055 209.58764648 C733.00176324 231.24549833 764.55507449 254.22333763 794.65893555 279.01733398 C796.40904331 280.45844646 798.16424417 281.89339677 799.92456055 283.32202148 C806.88686126 288.97508489 813.70100384 294.7867857 820.4934082 300.64135742 C822.25722529 302.15566359 824.02881695 303.66027656 825.8034668 305.16186523 C832.50435417 310.84258396 839.03912853 316.6593698 845.44824219 322.66796875 C848.49521108 325.52404111 851.56412601 328.33427277 854.72924805 331.06030273 C857.77892093 333.68910781 860.60649016 336.47649323 863.42433167 339.35032654 C865.19724867 341.09244498 867.02439361 342.70758917 868.91650391 344.31835938 C873.75196297 348.52518866 878.27066432 353.02041815 882.7956543 357.55639648 C883.67777084 358.4375563 884.55988739 359.31871613 885.46873474 360.22657776 C887.79407614 362.55107024 890.11698423 364.87796181 892.43908691 367.20568848 C893.85319628 368.62174952 895.26923925 370.03584595 896.68603516 371.44921875 C899.43361524 374.1905853 902.17766911 376.93543308 904.9206543 379.68139648 C905.75625381 380.51497177 906.59185333 381.34854706 907.45277405 382.2073822 C911.71520797 386.48672722 915.8322488 390.82776352 919.74815369 395.42762756 C921.35877922 397.26163044 923.04926755 398.9767815 924.79174805 400.68530273 C927.7840918 403.63130488 930.54498977 406.71513281 933.28393555 409.89624023 C935.23537592 412.12103412 937.23358453 414.29700774 939.24633789 416.46630859 C944.0747929 421.67237568 948.65679935 427.00346254 953.11206055 432.53686523 C955.26932203 435.15805392 957.50485805 437.67684554 959.79174805 440.18530273 C964.49638377 445.36040203 968.89692944 450.74671471 973.29174805 456.18530273 C974.29092462 457.4047279 975.2909737 458.62343851 976.29174805 459.84155273 C983.61112652 468.76776003 990.69554686 477.84860934 997.66674805 487.04858398 C999.28307102 489.17389327 1000.91035227 491.29029714 1002.54174805 493.40405273 C1010.33866434 503.51485478 1017.89514741 513.77825517 1025.29174805 524.18530273 C1025.84443359 524.96212402 1026.39711914 525.73894531 1026.96655273 526.53930664 C1063.49404414 578.00028199 1095.44867011 632.09016826 1124.29174805 688.18530273 C1124.79641602 689.16063965 1125.30108398 690.13597656 1125.82104492 691.14086914 C1135.06884856 709.06213301 1143.31729239 727.3612763 1151.38549805 745.8347168 C1153.11535145 749.79149542 1154.87259608 753.73532784 1156.63549805 757.67749023 C1184.25090988 819.79943696 1205.22418902 885.18097656 1221.29174805 951.18530273 C1221.57955139 952.36198517 1221.57955139 952.36198517 1221.87316895 953.56243896 C1238.96578224 1023.51647778 1249.25247812 1094.49467553 1254.49487305 1166.27124023 C1254.5945211 1167.60992157 1254.5945211 1167.60992157 1254.69618225 1168.97564697 C1255.94619079 1186.57732295 1256.46161624 1204.14795541 1256.49487305 1221.79077148 C1256.49770042 1222.83442682 1256.5005278 1223.87808216 1256.50344086 1224.95336342 C1256.51831172 1230.50292827 1256.52761103 1236.05246805 1256.53198242 1241.60205078 C1256.53631532 1246.06405039 1256.55002093 1250.52585098 1256.57299805 1254.98779297 C1257.06837899 1353.27819281 1245.09688358 1451.12371077 1139.29174805 1781.18530273 C1138.82639648 1782.17095215 1138.36104492 1783.15660156 1137.8815918 1784.17211914 C1126.67242234 1807.8570942 1115.05533186 1831.29674075 1102.29174805 1854.18530273 C1101.79239746 1855.08748535 1101.29304688 1855.98966797 1100.77856445 1856.91918945 C1092.33633459 1872.16262845 1083.40485244 1887.08661092 1074.28735352 1901.93188477 C1072.50120905 1904.84382031 1070.72481912 1907.7613966 1068.9519043 1910.68139648 C1051.20542003 1939.78818293 1031.6865122 1967.88273276 1011.29174805 1995.18530273 C1010.24079713 1996.59923914 1009.19001221 1998.01329894 1008.1394043 1999.42749023 C998.01824949 2013.02087783 987.48514323 2026.25758224 976.76391602 2039.38110352 C975.46903294 2040.96803319 974.17884326 2042.5587901 972.8894043 2044.15014648 C967.32700869 2051.00004053 961.6002931 2057.69935755 955.84008789 2064.38256836 C954.31334114 2066.16016186 952.79533097 2067.94482288 951.2800293 2069.73217773 C945.36453164 2076.69925505 939.30812218 2083.49925885 933.0769043 2090.18530273 C930.69770312 2092.73898403 928.36253443 2095.32827136 926.04174805 2097.93530273 C913.88058907 2111.47202808 901.17020074 2124.47019828 888.28881836 2137.31860352 C885.76256776 2139.83942026 883.24180661 2142.36564011 880.72143555 2144.89233398 C879.0889441 2146.52416565 877.45614304 2148.15568764 875.82299805 2149.78686523 C875.08327759 2150.52860992 874.34355713 2151.27035461 873.5814209 2152.03457642 C869.54289331 2156.05513739 865.41887408 2159.90781838 861.08361816 2163.60751343 C859.23967988 2165.23115014 857.51146197 2166.93132219 855.79174805 2168.68530273 C852.82439482 2171.69943856 849.71829512 2174.48447606 846.5144043 2177.24389648 C843.96197922 2179.47334335 841.47287291 2181.76531655 838.97924805 2184.06030273 C834.45921076 2188.18756437 829.79379673 2192.07120408 825.0300293 2195.91186523 C822.25926995 2198.21226743 819.61837005 2200.61051745 816.97924805 2203.06030273 C812.37094744 2207.30151254 807.5760391 2211.18008302 802.62670898 2215.00683594 C798.56866227 2218.15320431 794.62569405 2221.40395219 790.72924805 2224.74780273 C785.06048739 2229.5931585 779.22017536 2234.18098791 773.27368164 2238.68041992 C770.98807658 2240.41588058 768.71207144 2242.1635571 766.4362793 2243.91186523 C755.19380717 2252.53652804 743.85476321 2260.99522955 732.29174805 2269.18530273 C731.46610352 2269.77182617 730.64045898 2270.35834961 729.78979492 2270.96264648 C705.89276846 2287.89641954 681.38688658 2304.08036776 656.29174805 2319.18530273 C655.26839355 2319.80179688 654.24503906 2320.41829102 653.19067383 2321.0534668 C608.62456306 2347.82872814 562.77674403 2372.02052918 515.29174805 2393.18530273 C514.65497131 2393.46974243 514.01819458 2393.75418213 513.36212158 2394.04724121 C429.7584391 2431.37494607 341.87216614 2459.13060459 113.22924805 2496.43530273 C112.35884888 2496.512435 111.48844971 2496.58956726 110.5916748 2496.66903687 C77.87745719 2499.52680106 45.12825725 2500.52807754 12.30102539 2500.44604492 C7.71064133 2500.43465161 3.12048942 2500.44145187 -1.46988678 2500.45292282 C-34.45362345 2500.52269525 -67.34041089 2499.26605768 -100.20825195 2496.43530273 C-101.18376007 2496.35260132 -102.15926819 2496.2698999 -103.16433716 2496.18469238 C-193.51455833 2488.45070553 -283.08812194 2470.73555565 -464.70825195 2409.18530273 C-465.40936096 2408.90275635 -466.11046997 2408.62020996 -466.83282471 2408.32910156 C-512.13916962 2390.06599466 -557.15614032 2369.2538624 -599.32250977 2344.56176758 C-602.55421152 2342.6972225 -605.83140201 2340.92241143 -609.11279297 2339.1472168 C-617.61888164 2334.5440602 -625.97482649 2329.7197758 -634.27075195 2324.74780273 C-635.70427002 2323.88952881 -635.70427002 2323.88952881 -637.16674805 2323.01391602 C-653.06768742 2313.41911746 -668.65201004 2303.34074099 -684.09716797 2293.03125 C-686.77006032 2291.2482641 -689.44702165 2289.4715084 -692.12426758 2287.69506836 C-702.80039031 2280.59043759 -713.28436334 2273.26921647 -723.63296509 2265.69602966 C-726.60576328 2263.53194991 -729.59816058 2261.39566896 -732.5917511 2259.26048279 C-741.79794934 2252.68073943 -750.75488232 2245.81063585 -759.64331055 2238.80932617 C-761.54164071 2237.31633821 -763.44566563 2235.83110146 -765.3527832 2234.34936523 C-778.53954482 2224.08574062 -791.38793238 2213.39868418 -804.1003418 2202.55493164 C-805.78556315 2201.11944852 -807.47532004 2199.68941783 -809.1652832 2198.25952148 C-816.21031657 2192.2805321 -823.07229081 2186.14332641 -829.83325195 2179.84545898 C-832.05354152 2177.79108779 -834.29042502 2175.78193624 -836.58325195 2173.81030273 C-846.20315729 2165.47169557 -855.35605536 2156.61149576 -864.30200195 2147.56030273 C-866.35861162 2145.53040229 -868.44809629 2143.62121412 -870.64575195 2141.74780273 C-877.55358553 2135.83492461 -884.14190301 2129.31226875 -890.02075195 2122.37280273 C-893.5227465 2118.24823138 -897.3671108 2114.48984394 -901.20825195 2110.68530273 C-905.57940916 2106.35154186 -909.87760291 2102.03413923 -913.84887695 2097.32592773 C-916.50967295 2094.26265839 -919.30543403 2091.32977121 -922.08325195 2088.37280273 C-926.78553473 2083.35089552 -931.23002608 2078.20199061 -935.5324707 2072.82983398 C-937.83856895 2070.02691026 -940.24976726 2067.35526998 -942.70825195 2064.68530273 C-946.76685697 2060.27024089 -950.59949054 2055.72679575 -954.36450195 2051.06030273 C-956.45844905 2048.49172763 -958.59011125 2045.96494557 -960.74487305 2043.44775391 C-965.67881826 2037.68059278 -970.40220769 2031.78940813 -974.9934082 2025.74389648 C-976.95907737 2023.15648638 -978.94961966 2020.5902285 -980.9543457 2018.03295898 C-988.83684443 2007.97732079 -996.51833456 1997.79526566 -1004.04077148 1987.4675293 C-1005.58566196 1985.35308769 -1007.1429269 1983.24848855 -1008.7043457 1981.14624023 C-1019.52652604 1966.48141452 -1029.47508663 1951.20666587 -1039.51043701 1935.9989624 C-1040.57003285 1934.39458582 -1041.63234749 1932.79200557 -1042.69506836 1931.18969727 C-1063.42664552 1899.92461936 -1082.19434639 1867.3444338 -1099.70825195 1834.18530273 C-1100.26834961 1833.12827148 -1100.82844727 1832.07124023 -1101.40551758 1830.98217773 C-1123.32504801 1789.51962883 -1142.89119738 1746.97430434 -1159.70825195 1703.18530273 C-1159.96501709 1702.51728638 -1160.22178223 1701.84927002 -1160.48632812 1701.16101074 C-1168.95651945 1679.08384184 -1176.74101232 1656.80885983 -1184.01940918 1634.31176758 C-1184.68462275 1632.25824634 -1185.3536624 1630.20601026 -1186.02368164 1628.15405273 C-1214.01421249 1542.24834796 -1231.12035661 1452.54225454 -1241.70825195 1329.18530273 C-1241.76883789 1328.27893066 -1241.82942383 1327.37255859 -1241.8918457 1326.4387207 C-1245.27427235 1274.96006625 -1245.14873382 1222.65527744 -1241.70825195 1171.18530273 C-1241.64508789 1170.23510254 -1241.58192383 1169.28490234 -1241.5168457 1168.3059082 C-1235.13857657 1073.64801696 -1218.74632262 979.89863931 -1136.70825195 742.18530273 C-1136.01771729 740.64084473 -1136.01771729 740.64084473 -1135.31323242 739.06518555 C-1119.53798548 703.90956875 -1102.51102459 669.1718304 -1083.21704102 635.80444336 C-1081.70754975 633.18408377 -1080.21694894 630.55383774 -1078.73168945 627.91967773 C-1041.54352674 562.06908976 -997.35552047 499.30538304 -947.89160156 442.06982422 C-944.96853813 438.68165024 -942.12849875 435.24314817 -939.33325195 431.74780273 C-934.48288363 425.76450167 -929.19970997 420.21152761 -923.91918945 414.61108398 C-921.62860007 412.1787211 -919.38484428 409.72097755 -917.20825195 407.18530273 C-908.93034136 397.59045182 -900.08828537 388.49198307 -891.0793457 379.58764648 C-889.07066889 377.55249618 -887.18423849 375.48713532 -885.33325195 373.31030273 C-878.52306753 365.35141251 -870.91838079 357.95566666 -862.9309082 351.18920898 C-859.73529234 348.30810013 -856.73435352 345.24269924 -853.70825195 342.18530273 C-849.55572444 337.99422031 -845.40051754 333.90310527 -840.89575195 330.08764648 C-837.76236369 327.36271776 -834.74255038 324.51964217 -831.70825195 321.68530273 C-826.78221346 317.09419364 -821.8248352 312.56436046 -816.70825195 308.18530273 C-815.66256195 307.28569924 -814.61700127 306.3859454 -813.5715332 305.48608398 C-810.55522669 302.89246617 -807.53273302 300.30617808 -804.50756836 297.72290039 C-803.34742935 296.73150888 -802.18818101 295.73907369 -801.0300293 294.74536133 C-794.51731738 289.15771713 -787.91853849 283.71784852 -781.14526367 278.44848633 C-777.3356489 275.48056715 -773.57697316 272.45851891 -769.84301758 269.39599609 C-762.00060069 262.96449021 -754.00518443 256.78750093 -745.84594727 250.76391602 C-743.58586237 249.0949223 -741.33056997 247.41957725 -739.07543945 245.74389648 C-737.47414914 244.55733116 -735.87259128 243.3711268 -734.27075195 242.18530273 C-733.56909912 241.66460205 -732.86744629 241.14390137 -732.14453125 240.60742188 C-717.44118295 229.76290064 -702.35504749 219.49041232 -687.14575195 209.37280273 C-686.22283356 208.75835297 -685.29991516 208.1439032 -684.34902954 207.51083374 C-643.83262709 180.55606639 -601.91875281 156.18089482 -558.54101562 134.11956787 C-556.72179664 133.19220724 -554.9050828 132.26011799 -553.08911133 131.32641602 C-533.99489358 121.51511133 -514.58414176 112.57379861 -494.8996582 104.01196289 C-491.15158497 102.3813976 -487.41364853 100.72862302 -483.67700195 99.07202148 C-392.97468395 59.15229922 -295.99961485 32.37206413 -80.70825195 2.49780273 C-79.81920166 2.43686432 -78.93015137 2.3759259 -78.01416016 2.31314087 C-72.778101 1.95918688 -67.54102864 1.6325128 -62.30154419 1.33346558 C-60.61458433 1.23708432 -58.92778204 1.13789006 -57.24118042 1.03543091 C-38.17884731 -0.09867309 -19.08846372 -0.00209118 0 0 Z " fill="#4D60A9" transform="translate(1243.708251953125,-0.185302734375)"/>
<path d="M0 0 C1.66095848 0.18427368 3.31267993 0.45192516 4.95703125 0.75 C6.03130371 0.94255371 7.10557617 1.13510742 8.21240234 1.33349609 C9.40043457 1.55344238 10.5884668 1.77338867 11.8125 2 C13.67189209 2.3395874 13.67189209 2.3395874 15.56884766 2.68603516 C18.99232405 3.31383828 22.41378675 3.95202614 25.83465576 4.59387207 C28.01336287 5.00250631 30.1924627 5.40900014 32.37158203 5.81542969 C52.35929651 9.55399221 72.20812847 13.66632023 91.96374512 18.50201416 C94.13320092 19.03257557 96.30338665 19.56008374 98.47363281 20.08740234 C114.88626494 24.0821489 131.25728409 28.10480098 147.37207031 33.19165039 C150.88221263 34.27136808 154.40836543 35.29515307 157.93359375 36.32421875 C211.7027084 52.06338686 264.54014643 70.84627776 316 93 C316.67750305 93.29148926 317.3550061 93.58297852 318.05303955 93.88330078 C322.50163236 95.8002187 326.94088741 97.73731581 331.375 99.6875 C332.47432861 100.16856201 333.57365723 100.64962402 334.70629883 101.14526367 C335.71845459 101.59619385 336.73061035 102.04712402 337.7734375 102.51171875 C338.64403809 102.89803467 339.51463867 103.28435059 340.41162109 103.68237305 C346.48712296 106.77513701 350.23489965 110.1242597 353.90625 115.8359375 C354.34820206 116.50313812 354.79015411 117.17033875 355.24549866 117.85775757 C356.67525477 120.02280027 358.08786606 122.19843105 359.5 124.375 C360.48867638 125.88107613 361.47818447 127.3866066 362.46850586 128.89160156 C365.33000003 133.24969162 368.16861286 137.6223069 371 142 C371.56282684 142.86884827 371.56282684 142.86884827 372.13702393 143.75524902 C376.48322273 150.46717759 380.76253249 157.21900311 385 164 C385.53882813 164.85916016 386.07765625 165.71832031 386.6328125 166.60351562 C410.51538724 204.71942579 432.64119032 243.95718374 453.01239014 284.05731201 C454.0286175 286.05629234 455.04759959 288.05385185 456.06689453 290.05126953 C466.63271329 310.77894004 476.58695275 331.72468926 486 353 C486.28510437 353.64281921 486.57020874 354.28563843 486.86395264 354.94793701 C498.83210961 381.93764014 509.81952828 409.28383334 520 437 C520.34514648 437.93779297 520.69029297 438.87558594 521.04589844 439.84179688 C527.50950498 457.4300896 533.88832878 475.03514198 539.36865234 492.95751953 C540.03083005 495.09973865 540.7102882 497.23582399 541.39453125 499.37109375 C548.16209493 520.49573781 554.0856909 541.80332628 559.53849792 563.30081177 C560.57285391 567.36540758 561.64467918 571.41794629 562.74609375 575.46484375 C567.76904955 594.03850242 571.64588247 612.81799605 575.49052429 631.66398621 C576.43799622 636.29988427 577.40908489 640.92808124 578.4375 645.546875 C582.93728574 665.84698368 585.88164785 686.45189422 589 707 C589.10741516 707.70274048 589.21483032 708.40548096 589.32550049 709.1295166 C594.94614296 745.91685912 598.31052044 783.00891382 600.57299805 820.1403656 C600.86126378 824.86882149 601.18596863 829.59251201 601.54296875 834.31640625 C606.6096553 904.51091377 603.40037544 976.47241939 597.22247314 1046.43745422 C597.06788192 1048.21810555 596.92724393 1050.00000114 596.79754639 1051.78263855 C596.68929535 1053.12193169 596.68929535 1053.12193169 596.57885742 1054.48828125 C596.51929367 1055.28766113 596.45972992 1056.08704102 596.39836121 1056.91064453 C595.728738 1060.42273579 593.75745308 1061.88443338 591 1064 C589.53433594 1065.15435547 589.53433594 1065.15435547 588.0390625 1066.33203125 C586.90508554 1067.16439163 585.76675358 1067.9908393 584.625 1068.8125 C583.97909912 1069.28059082 583.33319824 1069.74868164 582.66772461 1070.23095703 C580.45114947 1071.82919862 578.22687604 1073.41614429 576 1075 C575.19804199 1075.57121582 574.39608398 1076.14243164 573.56982422 1076.73095703 C537.11859924 1102.59753593 499.17318256 1126.36104248 460.41845703 1148.60693359 C457.97043751 1150.01702842 455.52976659 1151.4392299 453.08984375 1152.86328125 C439.96305077 1160.48955281 426.55536175 1167.49787117 413.04882812 1174.42480469 C409.75966184 1176.12417215 406.49550149 1177.86547504 403.23510742 1179.61914062 C354.08106658 1205.96202124 302.27944589 1227.71833092 250 1247 C248.64161787 1247.50530309 247.28338681 1248.01101243 245.92529297 1248.51708984 C228.84456182 1254.8740429 211.66983084 1260.90333339 194.31970215 1266.48712158 C192.4922815 1267.07559035 190.66600722 1267.66763181 188.84094238 1268.2633667 C186.29492559 1269.0918269 183.74428083 1269.90389427 181.19140625 1270.7109375 C180.43471146 1270.9591626 179.67801666 1271.2073877 178.89839172 1271.46313477 C171.6000217 1273.72710278 171.6000217 1273.72710278 168 1272 C165.70910959 1269.58228395 163.87512688 1266.90121637 162.00390625 1264.15234375 C161.15826866 1262.9448069 161.15826866 1262.9448069 160.29554749 1261.71287537 C158.51246536 1259.1537443 156.75335438 1256.57957293 155 1254 C154.17468781 1252.79189667 154.17468781 1252.79189667 153.33270264 1251.55938721 C150.04450897 1246.73636663 146.79650017 1241.88771178 143.57006836 1237.02319336 C141.93846145 1234.56394914 140.30070337 1232.10888968 138.66210938 1229.65429688 C128.79645446 1214.84360693 119.09303615 1199.91228893 110.1875 1184.5 C109.61620361 1183.51572021 109.04490723 1182.53144043 108.45629883 1181.51733398 C99.5687959 1166.13748184 90.93816554 1150.60186039 82.5625 1134.9375 C82.19084717 1134.2472876 81.81919434 1133.5570752 81.4362793 1132.84594727 C79 1128.23943635 79 1128.23943635 79 1126 C80.32451172 1125.54560547 80.32451172 1125.54560547 81.67578125 1125.08203125 C82.87589844 1124.66308594 84.07601563 1124.24414062 85.3125 1123.8125 C86.48425781 1123.40644531 87.65601563 1123.00039062 88.86328125 1122.58203125 C93.03975374 1121.04980965 97.04542162 1119.18498837 101.08325195 1117.32299805 C104.95081805 1115.5687216 108.86606415 1113.94141136 112.78710938 1112.31103516 C144.24311599 1099.22061703 174.99627239 1084.50053945 204.49853516 1067.4453125 C207.51470555 1065.70261011 210.54052766 1063.97722555 213.56738281 1062.25317383 C216.04747953 1060.83990722 218.52397646 1059.42038785 221 1058 C214.38674107 1052.53393905 207.71376815 1047.16090458 200.93334961 1041.90405273 C197.80487958 1039.46741827 194.83083804 1036.96683812 191.9375 1034.25 C189.30499256 1031.70921435 189.30499256 1031.70921435 186.67089844 1032.20410156 C183.74239417 1033.07676371 181.09805057 1034.19198628 178.328125 1035.484375 C177.20559326 1036.0009668 176.08306152 1036.51755859 174.92651367 1037.04980469 C174.32922455 1037.32642944 173.73193542 1037.6030542 173.11654663 1037.88806152 C157.55980514 1045.07189172 141.72185032 1051.43175151 125.72802734 1057.56884766 C122.4885908 1058.81243489 119.25369467 1060.06701183 116.01953125 1061.32421875 C90.1988469 1071.26816564 63.85443011 1080.69977936 37.01318359 1087.47363281 C34.1643802 1088.21848124 31.36644706 1089.10244972 28.5625 1090 C-3.54580717 1100.01844879 -36.89955375 1106.28449727 -70 1112 C-72.10163482 1112.37198747 -74.20320255 1112.74435427 -76.3046875 1113.1171875 C-92.46379637 1115.94255316 -108.71244094 1118.07437725 -125 1120 C-126.74917725 1120.20689453 -126.74917725 1120.20689453 -128.53369141 1120.41796875 C-137.3428021 1121.43319646 -146.16425481 1122.25910788 -155 1123 C-155.79569397 1123.0678772 -156.59138794 1123.13575439 -157.41119385 1123.20568848 C-204.2668116 1127.16940851 -252.33514129 1128.26878542 -299.24462891 1124.31640625 C-302.57346815 1124.03593715 -305.90271708 1123.78052415 -309.23420715 1123.53477478 C-354.63078348 1120.16511674 -400.3674438 1114.34920129 -444.67578125 1103.78125 C-448.35024949 1102.9176852 -452.03301264 1102.09496847 -455.71875 1101.28125 C-486.45123067 1094.48407755 -516.5780392 1086.28773772 -546.40234375 1076.2109375 C-553.52124419 1073.81046308 -560.67651148 1071.53235557 -567.84814453 1069.29492188 C-572.96824861 1067.68759806 -577.99112268 1065.92368582 -583 1064 C-584.39281566 1063.4819598 -585.78606367 1062.96508088 -587.1796875 1062.44921875 C-598.49859579 1058.21837655 -609.70005789 1053.71953148 -620.875 1049.125 C-621.60502228 1048.82581665 -622.33504456 1048.5266333 -623.08718872 1048.21838379 C-630.48656786 1045.1831715 -637.85194418 1042.10627498 -645.12109375 1038.76953125 C-646.17893066 1038.28790527 -647.23676758 1037.8062793 -648.32666016 1037.31005859 C-650.26374399 1036.4196019 -652.19252578 1035.51076965 -654.11083984 1034.58056641 C-658.74575941 1032.27233281 -658.74575941 1032.27233281 -663.6328125 1032.87109375 C-664.41398437 1033.57363281 -665.19515625 1034.27617188 -666 1035 C-667.18638742 1035.94314958 -668.37544867 1036.8829405 -669.56640625 1037.8203125 C-670.90068104 1038.91915643 -672.23261592 1040.02084624 -673.5625 1041.125 C-679.54941241 1046.05950387 -685.63208633 1050.77352996 -691.9375 1055.29296875 C-692.618125 1055.85628906 -693.29875 1056.41960937 -694 1057 C-694 1057.66 -694 1058.32 -694 1059 C-677.1970012 1068.46506899 -660.29024011 1077.64997366 -643.10742188 1086.41259766 C-640.26927656 1087.86244216 -637.43872966 1089.32607178 -634.609375 1090.79296875 C-608.22000462 1104.36101798 -580.767294 1115.60269756 -553 1126 C-555.59849981 1132.84271617 -559.14453361 1139.25638478 -562.5 1145.75 C-562.86103821 1146.44973938 -563.22207642 1147.14947876 -563.59405518 1147.87042236 C-568.72568339 1157.80018988 -574.02363208 1167.5700133 -579.85546875 1177.109375 C-581.48344756 1179.79859597 -583.05508337 1182.51958369 -584.63232422 1185.23876953 C-602.24301361 1215.51254795 -621.90122015 1245.045023 -643 1273 C-648.33078547 1272.37037967 -653.24806206 1271.19680131 -658.375 1269.625 C-659.20499512 1269.37314941 -660.03499023 1269.12129883 -660.89013672 1268.86181641 C-669.67575017 1266.15891065 -678.4014012 1263.27045017 -687.125 1260.375 C-687.83678406 1260.13952454 -688.54856812 1259.90404907 -689.28192139 1259.66143799 C-696.44454648 1257.28751934 -703.55277345 1254.8603689 -710.53466797 1251.98828125 C-714.45323165 1250.41744091 -718.43449648 1249.02561806 -722.40869141 1247.6027832 C-784.12326915 1225.43000663 -844.85732413 1198.26656588 -902.24169922 1166.51367188 C-905.06846134 1164.96243049 -907.90846231 1163.43855256 -910.75390625 1161.921875 C-925.04052566 1154.29611696 -939.00698437 1146.20426931 -952.88623047 1137.86767578 C-955.71211049 1136.17267953 -958.54381214 1134.48811651 -961.37890625 1132.80859375 C-1049.47713985 1080.52286015 -1049.47713985 1080.52286015 -1070 1060 C-1070.19978278 1058.61952942 -1070.33746787 1057.22998748 -1070.44897461 1055.83959961 C-1070.5225267 1054.94772446 -1070.5960788 1054.0558493 -1070.67185974 1053.13694763 C-1070.78594933 1051.65956871 -1070.78594933 1051.65956871 -1070.90234375 1050.15234375 C-1070.98496964 1049.11662735 -1071.06759552 1048.08091095 -1071.15272522 1047.0138092 C-1071.32897268 1044.78681228 -1071.50283271 1042.55962539 -1071.67456055 1040.33227539 C-1071.92598975 1037.08610726 -1072.18786929 1033.84092633 -1072.45117188 1030.59570312 C-1073.02314906 1023.40080897 -1073.52664256 1016.20199568 -1074 1009 C-1074.06904667 1007.96131083 -1074.06904667 1007.96131083 -1074.13948822 1006.90163803 C-1076.03278094 978.17126446 -1076.31537226 949.48645731 -1076.26074219 920.70043945 C-1076.24934224 914.64829075 -1076.25613709 908.59631789 -1076.26762009 902.54417515 C-1076.31256672 874.63292712 -1075.87983579 846.85128551 -1074 819 C-1073.92438843 817.84706451 -1073.84877686 816.69412903 -1073.77087402 815.5062561 C-1073.33052203 808.89385553 -1072.81801806 802.29008034 -1072.25 795.6875 C-1072.16729858 794.71171997 -1072.08459717 793.73593994 -1071.99938965 792.73059082 C-1064.28501344 702.49718154 -1048.14609499 612.76021349 -1022 526 C-1021.71801758 525.05785645 -1021.43603516 524.11571289 -1021.14550781 523.14501953 C-1014.59333154 501.26583115 -1007.7317292 479.49297667 -1000 458 C-999.53547543 456.70573144 -999.07095768 455.41146044 -998.60644531 454.1171875 C-997.29927286 450.47801096 -995.98713361 446.84065139 -994.67199707 443.2043457 C-994.1490055 441.75784825 -993.62676343 440.31107954 -993.10534668 438.86401367 C-990.32496818 431.15557955 -987.44780739 423.51397279 -984.24658203 415.96777344 C-982.90252821 412.76794612 -981.61800626 409.54855117 -980.34375 406.3203125 C-969.74848244 379.48939937 -958.29438417 353.1003392 -946 327 C-945.30753174 325.52829346 -945.30753174 325.52829346 -944.60107422 324.02685547 C-932.30309678 297.97108431 -919.63950854 271.9976897 -905.57958984 246.84277344 C-903.78084901 243.60559597 -902.00850205 240.35437789 -900.23828125 237.1015625 C-892.11786042 222.20526526 -883.67976097 207.5542287 -874.85449219 193.06054688 C-872.98289602 189.97177257 -871.13276747 186.87111859 -869.2890625 183.765625 C-861.88648976 171.30488674 -854.34646851 158.95111218 -846.39453125 146.83203125 C-843.57642977 142.52089588 -840.89985879 138.16191414 -838.30332947 133.71435547 C-827.4860096 115.26713633 -818.92570782 103.26404 -797.84082031 96.33447266 C-793.40736894 94.84430406 -789.13133355 93.01296148 -784.8359375 91.16796875 C-784.04375824 90.82864319 -783.25157898 90.48931763 -782.43539429 90.13970947 C-780.83080331 89.45203634 -779.22638214 88.76396686 -777.62213135 88.07550049 C-767.48392162 83.74605582 -757.3041775 79.63734465 -746.88330078 76.03466797 C-744.39968458 75.14342618 -742.01853758 74.1687213 -739.625 73.0625 C-729.24417008 68.30222993 -718.32631837 64.67666898 -707.46704102 61.18017578 C-703.70539477 59.95682678 -700.02787456 58.62915705 -696.3671875 57.12890625 C-689.84515745 54.48250328 -683.1782324 52.27714119 -676.5 50.0625 C-675.50456177 49.73093399 -675.50456177 49.73093399 -674.48901367 49.39266968 C-666.19223374 46.63335425 -657.88455484 44.004102 -649.43041992 41.76416016 C-642.61628217 39.94737746 -635.92048277 37.78940119 -629.22265625 35.58520508 C-622.27028447 33.32239241 -615.24077899 31.41493778 -608.16860962 29.56912231 C-605.88799814 28.97060663 -603.61021528 28.36213378 -601.33276367 27.75170898 C-570.21487038 19.4266089 -538.88614213 12.54181897 -507.29541016 6.26171875 C-503.24772884 5.45611789 -499.20650226 4.62669282 -495.16943359 3.76953125 C-493.81497383 3.48607849 -493.81497383 3.48607849 -492.43315125 3.19689941 C-490.79085051 2.85243925 -489.14988868 2.50148607 -487.51081848 2.14196777 C-482.25320493 1.05036011 -477.37089445 0.85912408 -472 1 C-459.22682693 23.06582543 -447.94832362 45.80391266 -437.38183594 68.98974609 C-436.15305957 71.66656811 -434.90243986 74.33065277 -433.6328125 76.98828125 C-433.29628662 77.69436523 -432.95976074 78.40044922 -432.61303711 79.12792969 C-431.76993536 80.89019247 -430.9223203 82.6502942 -430.07421875 84.41015625 C-429 87 -429 87 -429 90 C-428.11368896 89.86948242 -427.22737793 89.73896484 -426.31420898 89.60449219 C-395.36288278 85.08420131 -364.37555093 81.70431442 -333.1875 79.3125 C-332.40765747 79.25165222 -331.62781494 79.19080444 -330.82434082 79.12811279 C-325.21928961 78.69570783 -319.61222365 78.32603798 -314 78 C-313.15939026 77.95020996 -312.31878052 77.90041992 -311.45269775 77.84912109 C-288.95801621 76.58928172 -266.40847575 76.84708825 -243.88769531 76.86962891 C-238.15272071 76.87532583 -232.41779241 76.87192152 -226.68281937 76.86621857 C-193.47768703 76.83761104 -160.65284766 77.71083356 -127.56530762 80.55171967 C-125.22077554 80.75250275 -122.87603984 80.95075018 -120.53125 81.14849854 C-100.79852588 82.81757251 -81.1215635 84.65410949 -61.52050781 87.52636719 C-60.4902951 87.676689 -60.4902951 87.676689 -59.43927002 87.83004761 C-57.67708946 88.09096658 -55.91656075 88.3629813 -54.15625 88.63623047 C-50.74602764 89.02927126 -47.42980472 89.06116918 -44 89 C-43.72027344 88.35490479 -43.44054688 87.70980957 -43.15234375 87.04516602 C-9.32693201 9.32693201 -9.32693201 9.32693201 0 0 Z " fill="#FEFEFE" transform="translate(1487,613)"/>
<path d="M0 0 C0.81984375 0.61101562 1.6396875 1.22203125 2.484375 1.8515625 C13.52604585 10.39654982 23.60404104 19.82043457 32 31 C32.4031543 31.53351074 32.80630859 32.06702148 33.22167969 32.61669922 C47.14670253 51.16020582 56.96962941 71.62385686 63 94.0625 C63.27493286 95.07509888 63.27493286 95.07509888 63.55541992 96.1081543 C67.12337948 110.54662328 67.40555507 125.28014927 67.375 140.0625 C67.37478851 141.00888336 67.37457703 141.95526672 67.37435913 142.93032837 C67.34239291 157.27346507 66.70533408 171.0677003 63 185 C62.81808105 185.70898438 62.63616211 186.41796875 62.44873047 187.1484375 C61.20532125 191.85983613 59.68269266 196.42899076 58 201 C57.72172363 201.76876465 57.44344727 202.5375293 57.15673828 203.32958984 C44.71635869 237.2731891 22.92067602 267.59252541 -8 287 C-8.88848633 287.56050049 -8.88848633 287.56050049 -9.79492188 288.13232422 C-39.4877412 306.55286954 -76.34929476 314.117527 -110.70800781 306.5390625 C-129.95511807 302.01226026 -148.0408742 294.86092637 -164 283 C-164.53367187 282.61150879 -165.06734375 282.22301758 -165.6171875 281.82275391 C-199.11690515 257.30582345 -220.521423 221.97925628 -230.0625 181.8125 C-230.30323242 180.8524707 -230.30323242 180.8524707 -230.54882812 179.87304688 C-233.71706157 166.57664548 -234.37738141 153.34543199 -234.3125 139.75 C-234.31034485 138.93473846 -234.3081897 138.11947693 -234.30596924 137.2795105 C-234.25508252 125.27627456 -233.84580188 113.71057785 -231 102 C-230.70996094 100.73373779 -230.70996094 100.73373779 -230.4140625 99.44189453 C-223.18817515 68.39176595 -208.57299952 40.31880937 -186.37695312 17.42822266 C-185.15503033 16.16080274 -183.95836774 14.86913701 -182.765625 13.57421875 C-136.01035484 -35.90551264 -53.75226059 -40.39663756 0 0 Z " fill="#4D60A9" transform="translate(1613,1172)"/>
<path d="M0 0 C0.98545303 0.00273422 0.98545303 0.00273422 1.99081421 0.00552368 C12.73325572 0.05554916 22.94386872 0.73116017 33.375 3.3125 C34.08366211 3.48410645 34.79232422 3.65571289 35.52246094 3.83251953 C46.04929736 6.4607056 55.79195308 10.24140041 65.375 15.3125 C66.05030762 15.66940918 66.72561523 16.02631836 67.42138672 16.39404297 C105.13485462 36.68918765 132.9446444 72.28141343 145.45874023 113.12573242 C150.31722505 130.05520685 152.55439959 146.99143209 152.5 164.5625 C152.50386719 165.79613281 152.50773437 167.02976562 152.51171875 168.30078125 C152.49952978 179.89249137 151.864697 191.23876918 149.625 202.625 C149.36058105 203.97537354 149.36058105 203.97537354 149.09082031 205.35302734 C143.78221233 231.46526401 132.55359054 256.17428558 116.375 277.3125 C115.65570312 278.25738281 114.93640625 279.20226563 114.1953125 280.17578125 C95.9067248 303.32122832 72.35878736 320.00414681 44.375 329.3125 C43.30121094 329.69019531 42.22742188 330.06789063 41.12109375 330.45703125 C8.4971649 341.35889483 -28.18837238 337.57153804 -58.875 322.5 C-70.27301732 316.66264202 -80.91749278 309.67893871 -90.625 301.3125 C-91.58019531 300.49136719 -92.53539062 299.67023438 -93.51953125 298.82421875 C-115.35004517 279.65639271 -130.50995985 254.70608357 -139.89501953 227.40722656 C-140.50243093 225.66421994 -141.15050004 223.9354471 -141.80859375 222.2109375 C-148.20882803 204.92781458 -149.85885809 185.65913588 -149.875 167.375 C-149.87567474 166.68553284 -149.87634949 165.99606567 -149.87704468 165.28570557 C-149.86133221 155.15424836 -149.39255492 145.3867245 -147.12109375 135.48193359 C-146.57527095 133.0950333 -146.0854006 130.69939884 -145.59375 128.30078125 C-139.45294185 99.48683685 -126.82612753 73.67539124 -107.625 51.3125 C-106.90441406 50.46816406 -106.18382812 49.62382813 -105.44140625 48.75390625 C-85.27946328 25.7168199 -56.83209196 8.34121566 -26.625 2.3125 C-25.75117676 2.13549561 -24.87735352 1.95849121 -23.97705078 1.77612305 C-15.95328403 0.29235294 -8.1488579 -0.03596234 0 0 Z " fill="#4D60A9" transform="translate(970.625,1144.6875)"/>
</svg>
